<svg version="1.2" xmlns="http://www.w3.org/2000/svg" viewBox="0 0 57 58" width="57" height="58">
	<title>Ellipse 11-svg</title>
	<defs>
		<clipPath clipPathUnits="userSpaceOnUse" id="cp1">
			<path d="m21.58 4l27.78 11.32l-15.58 38.23l-27.78-11.32z" />
		</clipPath>
	</defs>
	<style>
		.s0 { opacity: .3;fill: #ffffff } 
		.s1 { fill: #ffffff } 
		.s2 { mix-blend-mode: multiply;fill: #bfbfbf } 
		.s3 { fill: #fefefe } 
		.s4 { mix-blend-mode: multiply;fill: #8a8a8a } 
		.s5 { mix-blend-mode: multiply;fill: #ffffff } 
		.s6 { fill: #2e2c2a } 
		.s7 { fill: #242220 } 
		.s8 { mix-blend-mode: multiply;fill: #166938 } 
	</style>
	<path id="Layer" class="s0" d="m28.4 57c-15.7 0-28.4-12.7-28.4-28.5c0-15.8 12.7-28.5 28.4-28.5c15.7 0 28.4 12.7 28.4 28.5c0 15.8-12.7 28.5-28.4 28.5z" />
	<g id="Clip-Path" clip-path="url(#cp1)">
		<g id="Layer">
			<path id="Layer" class="s1" d="m33.9 9.2q0.7 0.2 1.3 0.7c0.4 0.4 0.7 0.9 0.8 1.4c0.1 1 0.6 1.7 1.2 2.4q0.4 0.5 0.7 1c0.3 0.4 0.3 1 0.3 1.5q-0.1 2.6-0.1 5.2c-0.1 1.5 0 3.1-0.1 4.6c-0.1 1.5 0 2.9-0.1 4.3c-0.2 3.2-0.2 6.3-0.3 9.5q0 1.9-0.1 3.8q0.1 0.4-0.1 0.8q-0.2 0.4-0.5 0.6q-0.4 0.4-0.9 0.6c-0.4 0.3-0.7 0.7-0.9 1.2c-0.2 0.6-0.6 0.9-1.2 1.2q-1 0.4-2.1 0.6c-2.7 0.6-5.4 0.6-8.1 0.3q-0.9-0.1-1.7-0.4c-0.4-0.2-0.8-0.5-1-0.9c-0.1-0.3-0.4-0.5-0.8-0.7q-0.9-0.3-1.8-0.9q-0.6-0.4-1-1.1q-0.2-0.4-0.3-0.8q-0.1-0.4-0.1-0.8q0-5.2 0.1-10.5q0-4.5 0-9q0.1-3.5 0.1-7.1q0-0.7 0-1.5q0.1-0.4 0.3-0.7c0.4-0.6 0.8-1.1 1.1-1.6c0.2-0.4 0.3-0.9 0.3-1.4q-0.1-0.6 0.1-1.1c0.2-0.6 0.7-0.9 1.2-1.3q0.5-0.4 1.1-0.8c0.5-0.4 1.1-0.4 1.7-0.3c0.3 0.1 0.6 0.3 1 0.3q0.5 0.1 1.1 0q3.2-0.2 6.3 0.2q0.9 0.2 1.8 0.4q0.4 0.1 0.7 0.3z" />
			<g id="Layer">
				<path id="Layer" class="s2" d="m21.3 48.3q-0.3-0.3-0.5-0.6c-0.2-0.4-0.6-0.5-1-0.7q-0.5-0.1-1-0.4q0.2-0.1 0.4 0q1 0.4 2 0.5q1.2 0.1 2.3 0.2q1.3 0.2 2.6 0.1c1.2 0 2.4-0.1 3.6-0.1q1.2-0.1 2.5-0.4q0.8-0.2 1.7-0.5q1.5-0.5 3-1.4q0 0 0.1-0.1q0 0 0.1 0q0 0 0 0q0 0.2-0.2 0.3c-0.3 0.3-0.8 0.6-1.1 0.9q-0.5 0.3-0.7 0.9c-0.1 0.5-0.4 0.8-0.8 1c-0.7 0.5-1.5 0.6-2.4 0.8q-1.8 0.4-3.7 0.5q-1.3 0.1-2.5 0q-1.2 0-2.4-0.2c-1.6-0.3-2-0.8-2-0.8z" />
			</g>
			<g id="Layer">
				<path id="Layer" fill-rule="evenodd" class="s2" d="m33.9 9q0.7 0.3 1.3 0.8c0.5 0.3 0.7 0.8 0.9 1.4q0 0.3 0.1 0.7q0.1 0.3 0 0.6c0 0.1-0.2 0.1-0.4 0.2q-0.7 0.3-1.5 0.5q-1.1 0.3-2.3 0.4q-0.7 0-1.4 0c-0.7 0.1-1.4 0.1-2.1 0.1q-1.1 0-2.2-0.1c-0.6-0.1-1.2-0.1-1.8-0.2q-1.5-0.2-3-0.5q-1-0.1-2-0.4c-0.1-0.1-0.1-0.1-0.2-0.1c-0.5-0.2-0.5-0.2-0.5-0.7q0-0.8 0.3-1.5q0.1-0.4 0.4-0.7q0.5-0.4 1.1-0.8q0.3-0.1 0.5-0.3c0.5-0.6 1.2-0.6 1.9-0.5q0.4 0.1 0.8 0.3q0.5 0.1 1 0q2.2-0.2 4.5 0q1.3 0 2.6 0.3c0.7 0.1 1.4 0.2 2 0.5zm-8.2 0.2q0.7 0.3 1.3 0.7q0.3 0.2 0.4 0.5q0.1 0.4-0.5 0.7c-0.7 0.4-1.5 0.5-2.2 0.3c-0.8-0.2-1.5-0.3-2.2-0.6q-0.8-0.3-1.2-0.9q-0.1-0.1-0.1-0.1q-0.1 0-0.1 0q-0.5 0.1-0.9 0.4c-0.3 0.2-0.3 0.4 0 0.7q0.4 0.2 0.8 0.3q0.8 0.2 1.6 0.3q0.6 0.1 1.1 0.2c0.5 0 1 0.1 1.5 0.1c0.8 0 1.6 0.1 2.3 0c0.4 0 0.8 0.1 1.2 0q0.5 0 1 0c0.8-0.1 1.5-0.2 2.2-0.2q0.8-0.1 1.6-0.4q0.5-0.1 1-0.4c0.3-0.1 0.3-0.4 0-0.6q-0.4-0.3-0.9-0.4q-1-0.3-2-0.4c-0.8-0.1-1.6-0.2-2.4-0.2q-0.8 0-1.5 0q-0.3-0.1-0.7 0c-0.4 0-0.8-0.1-1.3 0zm-3.2 0.7l0.5 0.1c0.5 0 0.9-0.2 1.3-0.5c0.1-0.1 0.2-0.2 0-0.2q-0.6-0.3-1.2-0.5q-0.3-0.1-0.6 0q-0.3 0-0.5 0.2q-0.1 0-0.1 0.1q0 0 0 0q-0.1 0.1-0.1 0.1q0.1 0 0.1 0.1q0.2 0.4 0.6 0.6zm1.9 0.6q0.3 0.1 0.5 0.2q0.4 0.1 0.7 0.1q0.4-0.1 0.7-0.3c0.2-0.1 0.2-0.2 0-0.3q-0.2-0.1-0.3-0.2q-0.3-0.1-0.7-0.3q0 0-0.1 0q0 0-0.1 0c-0.3 0.1-0.5 0.3-0.7 0.5c-0.1 0-0.3 0.1-0.2 0.2c0 0.1 0.1 0.1 0.2 0.1z" />
			</g>
			<path id="Layer" class="s3" d="m22.5 9.9q-0.4-0.2-0.6-0.6q-0.1-0.1-0.1-0.1q0 0 0.1-0.1q0 0 0 0q0-0.1 0-0.1q0.3-0.1 0.6-0.2q0.3-0.1 0.6 0q0.6 0.2 1.2 0.5c0.2 0 0.1 0.1 0 0.2c-0.4 0.3-0.8 0.5-1.4 0.5z" />
			<path id="Layer" class="s3" d="m24.4 10.5c-0.1 0-0.2 0-0.2-0.1c-0.1-0.1 0.1-0.2 0.2-0.2c0.2-0.2 0.4-0.4 0.7-0.5q0.1 0 0.1 0q0.1 0 0.1 0q0.4 0.2 0.7 0.3q0.1 0.1 0.3 0.2c0.2 0.1 0.2 0.2 0 0.3q-0.3 0.2-0.7 0.3q-0.3 0-0.7-0.1q-0.2-0.1-0.5-0.2z" />
			<g id="Layer">
				<path id="Layer" class="s4" d="m31.1 11.1c-0.5 0.5-1.2 0.5-1.8 0.5q-1.2 0-2.3 0.1q-0.1 0-0.2 0q-0.1 0-0.2-0.1q-0.1-0.1-0.1-0.2q0-0.1 0-0.2q0.1 0 0.2-0.1q0.2 0 0.3-0.2q0.2-0.1 0.2-0.4q0 0 0.1-0.1q0 0 0.1 0c1 0 1.9-0.1 2.9 0q0.4 0 0.7 0.1c0.2 0.1 0.2 0.3 0.2 0.5z" />
			</g>
			<g id="Layer">
				<g id="Layer">
					<path id="Layer" class="s5" d="m17.4 43.3q0-0.6 0-1.2q0.1-2 0.1-4q0-1.9-0.1-3.7q0.1-2.2 0.1-4.3c0-1-0.1-2.1 0-3.2q0-1.5 0-3q0-1.4 0-2.8q0-2.4 0-4.7c0-0.5-0.1-1 0.2-1.5q0.4-0.7 0.8-1.3c0.3-0.4 0.5-0.9 0.6-1.4c0-0.2 0.1-0.1 0.1-0.1q0.4 0.2 0.7 0.3q2.8 0.7 5.6 1q2.8 0.2 5.7-0.1q1.4 0 2.6-0.3c0.9-0.3 1.7-0.5 2.4-0.9c0.2-0.1 0.2-0.1 0.3 0c0.2 0.7 0.6 1.2 1.1 1.6c0.3 0.4 0.6 0.8 0.7 1.3c0.1 0.6 0 1.1 0 1.7q0 1.3 0 2.7q0 1.3 0 2.6c0 0.5-0.1 1 0 1.5c0 0.8 0 1.6 0 2.4c-0.1 0.8-0.2 1.5-0.1 2.3q0 1 0 2q-0.1 1-0.1 2q-0.1 1.8-0.1 3.7q0 1.2 0 2.5q-0.1 1.4-0.1 2.8c0 0.7 0 1.4 0 2.1q0 0.2-0.1 0.5c0 0-0.3 0.7-2.1 1.5c-6.9 3.3-15.8 1.2-15.8 1.2c-1.1-0.2-2.5-0.9-2.5-3.2z" />
				</g>
			</g>
			<path id="Layer" fill-rule="evenodd" class="s6" d="m25.5 20.6h0.2q0.2-0.1 0.4 0.1q0.1 0 0.1 0.1q0 0.1 0 0.2q0 0.1 0 0.2q0 0.1-0.1 0.2q-0.1 0.1-0.3 0.1h-0.3zm0.2 0.1v0.6h0.1c0.1 0 0.3-0.1 0.3-0.3q0-0.1-0.1-0.2q0 0-0.1-0.1q-0.1 0-0.1 0z" />
			<path id="Layer" class="s6" d="m26.5 20.5h0.7v0.2h-0.5l0.1 0.2l0.4-0.1v0.2h-0.4v0.2h0.4v0.2h-0.6z" />
			<path id="Layer" class="s6" d="m27.9 20.5h0.2v0.7h0.4v0.2h-0.6z" />
			<path id="Layer" fill-rule="evenodd" class="s6" d="m29.2 20.5l0.3 0.8h-0.2l-0.1-0.1h-0.3v0.2h-0.3l0.3-0.9zm-0.1 0.2q0 0 0 0.1c0 0.1-0.1 0.2-0.1 0.3h0.2z" />
			<path id="Layer" class="s6" d="m30.8 23.8c0.1-0.1 0.2-0.1 0.4-0.1c0.1 0.1 0.1 0.2 0.1 0.3c-0.1 0.1-0.2 0.2-0.3 0.1c-0.1 0-0.2-0.1-0.2-0.3z" />
			<path id="Layer" class="s6" d="m32 22l-0.7 1.5q-0.1 0-0.1 0q0 0 0 0q0 0 0 0q0 0 0-0.1l0.3-1.5q0 0 0 0q0-0.1 0-0.1q0-0.1 0.1-0.1q0.1-0.1 0.2-0.1q0.1 0.1 0.2 0.2q0 0.1 0 0.2q0 0 0 0z" />
			<path id="Layer" class="s6" d="m25.5 23.2q0 0.2-0.1 0.3q0 0.1-0.2 0.2q-0.1 0-0.3 0q-0.1 0-0.2-0.1q-0.2-0.1-0.2-0.2q-0.1-0.1-0.1-0.2q0-0.1 0-0.3q0.1-0.1 0.2-0.1q0-0.1 0.1-0.2q0.2-0.1 0.4 0q0.1 0 0.2 0.1l-0.2 0.2q0-0.1-0.1-0.1q-0.1 0-0.2 0q0 0.1-0.1 0.1q0 0.1 0 0.1q0 0.1 0 0.1q0 0.1 0 0.1c0.1 0.3 0.3 0.3 0.4 0.3q0.1-0.1 0.1-0.1q0.1-0.1 0.1-0.2z" />
			<path id="Layer" fill-rule="evenodd" class="s6" d="m26.4 22.2l0.6 1l-0.3 0.1l-0.1-0.2l-0.4 0.1v0.2h-0.3l0.2-1.1zm-0.1 0.2q0 0.1 0 0.2c0 0.1-0.1 0.2-0.1 0.3h0.3z" />
			<path id="Layer" class="s6" d="m27.3 22.1h0.3v0.9h0.4v0.2h-0.7z" />
			<path id="Layer" class="s6" d="m28.6 22.1l0.3 0.1l-0.1 0.8l0.4 0.1v0.2l-0.7-0.1z" />
			<path id="Layer" class="s6" d="m29.9 22.3l0.8 0.3l-0.1 0.2l-0.5-0.2l-0.1 0.2l0.5 0.2l-0.1 0.2l-0.5-0.2v0.3l0.5 0.2l-0.1 0.2l-0.8-0.3z" />
			<path id="Layer" class="s6" d="m32.5 21.9v0.1h-0.1v0.3h-0.1v-0.3h-0.1v-0.1z" />
			<path id="Layer" class="s6" d="m32.8 21.9h0.1v0.3v0.1v-0.3q0 0 0 0q0 0 0 0l-0.1 0.3h-0.1v-0.3q0 0 0 0q0 0 0 0v0.3h-0.1v-0.4h0.1l0.1 0.3z" />
			<path id="Layer" class="s1" d="m23.8 29q0.1-0.1 0.2-0.2q0-0.1 0-0.3q0-0.1 0-0.1q0 0 0 0q0.1 0 0.1 0q0 0 0 0q0 0 0 0q0 0.1 0 0.1c0.1 0.3 0.2 0.8-0.3 1.1q-0.1 0.1-0.2 0.1q-0.2 0.1-0.3 0q-0.2 0-0.3-0.1q-0.1 0-0.2-0.2q-0.2-0.2-0.2-0.5q0-0.3 0.2-0.5q-0.1-0.1-0.3-0.1q-0.1-0.1-0.2-0.2c-0.2-0.3 0-0.8 0.3-1q0.4-0.4 0.7 0q0.1 0.1 0.1 0.2q0 0.2-0.1 0.3q-0.1 0-0.1 0q0 0-0.1 0q0 0 0 0q-0.1 0-0.1-0.1c-0.1-0.1 0-0.2 0-0.3q-0.1-0.1-0.2 0c-0.2 0.1-0.1 0.4 0 0.6q0 0.1 0.1 0.1q0.1 0.1 0.1 0.1q0.1-0.1 0.2-0.2q0 0 0 0q0.1 0 0.1 0q0.1 0 0.1 0q0 0 0 0.1q0.1 0 0.1 0q0 0.1 0 0.1q0 0.1-0.1 0.1q0 0.1 0 0.1q-0.2 0.1-0.3 0.1q-0.1 0.3 0.1 0.6q0 0.1 0.1 0.1q0.1 0.1 0.2 0.1q0.1 0 0.2 0q0 0 0.1-0.1z" />
			<path id="Layer" class="s1" d="m25.3 27.2q0-0.1 0.1-0.1c0.2-0.3 0.2-0.6 0.1-1c-0.1-0.2-0.3-0.3-0.4-0.2q0 0.1 0 0.3q0.1 1 0.3 2q0.1 0.1 0 0.1c-0.1 0.1-0.3 0.2-0.4 0.2q0 0-0.1 0c0-0.2-0.2-1.5-0.2-2q-0.1-0.2 0-0.5c-0.4 0.3-0.6 0.8-0.5 1q0.1 0.2 0.2 0.1q0.1 0 0.1-0.1q0.1 0 0.1 0q0 0.2-0.1 0.4q0 0.1-0.2 0.2q-0.1 0-0.2 0q0 0-0.1 0q-0.1 0-0.1-0.1q-0.1 0-0.1-0.1c-0.2-0.6 0.2-1.3 1.1-1.7c0.5-0.2 0.9-0.1 1.1 0.2c0.2 0.6-0.2 1.1-0.6 1.3q0 0 0 0q-0.1 0-0.1 0z" />
			<path id="Layer" fill-rule="evenodd" class="s1" d="m28.6 27.7q0-0.1 0-0.1q0 0 0 0q0 0 0.1 0q0 0 0 0q0 0.1 0 0.1q0 0-0.1 0.1q0 0.1-0.1 0.2q-0.1 0.1-0.3 0.1c-0.2 0-0.3-0.1-0.4-0.4q0-0.3 0-0.6q-0.1 0-0.2 0.1q-0.1 0-0.1 0.2c-0.2 0.4-0.3 0.9-0.8 1q-0.1 0-0.2 0q-0.1-0.1-0.2-0.1q-0.1-0.1-0.1-0.2q-0.1-0.1-0.1-0.2q0-0.2 0.1-0.3q0.1-0.2 0.3-0.3q0 0 0 0q0.1 0 0.1 0.1q0 0 0 0q0 0 0 0c0 0-0.1 0.1-0.1 0.2q0 0 0.1 0.1q0 0 0 0q0 0 0.1 0q0 0.1 0.1 0c0.2 0 0.3-0.4 0.4-0.7c0.2-0.3 0.3-0.8 0.5-1q-0.2 0-0.4 0q-0.2 0-0.3 0.1q0 0.1 0 0.2q0 0.1 0 0.1q0 0 0 0q0 0.1 0.1 0.1q0 0 0 0c0.1 0 0.1-0.1 0.1-0.1q0 0 0 0q0 0 0.1 0q0 0 0 0q0 0 0 0q0 0.2-0.1 0.3q-0.1 0.1-0.3 0.2q-0.1 0-0.2 0q0-0.1-0.1-0.1q-0.1-0.1-0.1-0.1q0-0.1 0-0.2c-0.1-0.4 0.2-0.7 0.6-0.7c0.4-0.1 0.6 0 0.8-0.1q0.2 0 0.5-0.1q0 0 0 0q0 0 0 0q0 0 0 0q0 0.1 0 0.1c0 0 0 0.1-0.1 0.4q0 0.7 0 1.5q0 0.2 0.1 0.2c0.1-0.1 0.1-0.1 0.2-0.1zm-0.8-0.9q0.1-0.4 0.2-0.8q-0.3 0.4-0.4 0.8z" />
			<path id="Layer" class="s1" d="m30.7 25.9c0 0.2-0.1 0.4-0.3 0.4q0 0 0 0q-0.1 0-0.1 0q0 0 0-0.1q-0.1 0-0.1 0c0-0.2 0.2-0.2 0.2-0.4q0-0.1-0.1-0.1q0 0 0 0q0 0-0.1 0q0-0.1 0 0c-0.4 0-0.7 0.8-0.6 1.6c0 0.4 0.3 0.6 0.6 0.5q0.1 0 0.2-0.1q0.1-0.1 0.2-0.2q0-0.1 0.1-0.1q0 0 0 0q0 0 0 0q0 0 0 0q0 0 0 0q0 0.1 0 0.2c0 0.2-0.3 0.7-0.8 0.8c-0.5 0-0.9-0.2-0.9-0.9c-0.2-1 0.4-2 1-2.1q0.2 0 0.3 0q0.1 0 0.2 0.1q0 0.1 0.1 0.2q0.1 0.1 0.1 0.2z" />
			<path id="Layer" class="s1" d="m32.9 28.9q0 0.1 0.1 0c0.1 0 0.1 0 0.1 0q0 0 0 0q0 0 0 0.1q0 0-0.1 0.1q-0.1 0-0.2 0.1q-0.1 0-0.3-0.1c-0.2 0-0.2-0.2-0.1-0.5q0.1-0.3 0.2-0.6q-0.2-0.1-0.4 0c-0.1 0.1-0.4 0.6-0.5 0.8q0 0-0.1 0c-0.1 0-0.3-0.1-0.3-0.1q-0.1 0-0.1-0.1c0.1-0.3 0.9-1.2 1-1.8q0.1 0 0.1 0q0-0.1-0.1-0.1q0 0 0 0q0-0.1-0.1-0.1c-0.2 0-0.6 0.2-0.7 0.5q0 0.2 0.1 0.2c0.1 0 0.1 0 0.1 0q0.1 0 0.1 0.1q-0.1 0.1-0.3 0.2q-0.1 0-0.3 0q0 0-0.1-0.1q-0.1 0-0.1-0.1q0-0.1 0-0.2q0 0 0-0.1c0.2-0.6 0.9-0.8 1.4-0.6q0.5 0.1 0.3 0.6q-0.1 0.3-0.3 0.6l0.4 0.1c0.2-0.3 0.4-0.5 0.5-0.7c0.1-0.1 0.4-0.1 0.5-0.1q0.1 0.1 0.1 0.1c0 0.1-0.1 0.1-0.2 0.2q-0.5 0.7-0.8 1.4q0 0.2 0.1 0.2z" />
			<path id="Layer" class="s1" d="m34.7 30q0.2 0 0.3-0.1q0.1-0.1 0.2-0.2q0-0.1 0.1-0.1q0 0 0 0q0 0 0 0q0 0 0 0q0 0 0 0q0 0.1 0 0.2c0 0.2-0.2 0.7-0.8 0.8q-0.2 0-0.4 0q-0.1 0-0.3-0.1q-0.1-0.2-0.2-0.3q-0.1-0.2-0.1-0.3q0-0.4 0.1-0.6q0.2-0.3 0.5-0.5q-0.3-0.2-0.3-0.5c-0.1-0.4 0.3-0.8 0.8-0.9c0.3 0 0.6 0.1 0.6 0.4c0 0.3-0.1 0.5-0.2 0.5q-0.1 0-0.1 0q-0.1 0-0.1-0.1q0 0-0.1 0q0-0.1 0-0.1c0-0.2 0.2-0.2 0.2-0.3q-0.1-0.2-0.2-0.1c-0.2 0-0.4 0.3-0.3 0.6c0 0.2 0.1 0.3 0.1 0.3q0.1-0.1 0.2-0.1q0.1 0 0.1 0q0.1 0 0.1 0q0 0.1 0.1 0.1q0 0 0 0.1q0 0 0 0.1q0 0.1-0.1 0.1q0 0-0.1 0.1q0 0-0.1 0q-0.2 0-0.3-0.1q-0.2 0.3-0.2 0.7q0 0.1 0 0.2q0.1 0.1 0.2 0.1q0 0.1 0.1 0.1q0.1 0 0.2 0z" />
			<path id="Layer" class="s1" d="m21.9 27.4q0 0.1-0.1 0.2q-0.1 0.1-0.2 0.2c-0.1 0.3 0.5 1.8 0.8 2.6c0.1 0.3-0.8 0.5-0.8 0.4c0.3-0.4-0.3-2-0.3-2.6q-0.1-0.1 0-0.3q-0.2 0.1-0.4 0.2q-0.2 0.1-0.3 0.2q0 0.2 0 0.3q0.1 0 0.1 0.1q0 0 0 0q0.1 0 0.1 0q0.1 0 0.1 0c0.1 0 0.1-0.1 0.1-0.1q0 0 0 0q0 0 0 0q0 0 0 0q0 0 0 0q0.1 0.2 0 0.4q0 0.2-0.2 0.3q-0.1 0-0.2 0q-0.1 0.1-0.2 0q-0.1 0-0.1-0.1q-0.1 0-0.2-0.1c-0.2-0.5 0.1-0.9 0.5-1.2c0.4-0.3 0.7-0.3 0.9-0.4c0.2-0.2 0.3-0.3 0.3-0.4q0.1 0 0.1 0.1q0 0.1 0 0.2z" />
			<path id="Layer" class="s1" d="m35.8 27.7v0.1h-0.1v0.3h-0.1v-0.3h-0.1z" />
			<path id="Layer" class="s1" d="m36.1 27.7h0.1v0.4v-0.2q0-0.1 0-0.1l-0.1 0.3h-0.1l-0.1-0.3q0 0 0 0l0.1 0.1v0.2h-0.1v-0.4h0.1l0.1 0.3z" />
			<path id="Layer" class="s7" d="m27.8 30.6q0 0 0.1 0q0 0 0 0q0.1 0.1 0.2 0.3q0.1 0.1 0.1 0.2q0 0.1 0 0.2c0 0.2-0.1 0.3-0.1 0.5q0 0.1 0 0.2q-0.1 0 0 0.1q0 0 0-0.1q0.2-0.2 0.2-0.5q0-0.2 0.1-0.3q0.1-0.2 0.3-0.2c0.1 0 0.1-0.1 0.2 0q-0.1 0.1-0.2 0.2q-0.1 0-0.1 0.1q0 0 0 0.1q0 0.1-0.1 0.3q0 0 0 0c0 0 0-0.1 0.1-0.1q0-0.1 0-0.1q0.1-0.1 0.1-0.1q0-0.1 0.1-0.1c0 0 0 0.1 0 0.1q-0.1 0.1-0.1 0.3q0 0.1-0.1 0.1q0 0.1-0.1 0.2q-0.2 0-0.3 0.1q-0.1 0-0.2 0q0 0-0.1-0.1q-0.2-0.1-0.3-0.3q-0.1-0.1-0.1-0.3q-0.1-0.1-0.1-0.2q-0.2-0.1-0.3-0.2q0.2 0 0.3 0.1q0.2 0.1 0.3 0.2q0.1 0.1 0.1 0.3q0 0.2 0.1 0.4q0 0 0.1 0q0 0 0 0q-0.1-0.2-0.1-0.3q0-0.2 0-0.4q0-0.2 0-0.4q0-0.2-0.1-0.3z" />
			<path id="Layer" class="s7" d="m27.2 31.4q0.1 0 0.1 0q0 0.1 0 0.1q0.1 0.2 0.3 0.3q0.1 0.1 0.2 0.3q-0.2-0.1-0.3-0.1q-0.1-0.1-0.2-0.2q0 0 0-0.1q-0.1-0.2-0.1-0.3z" />
			<path id="Layer" class="s7" d="m28.2 33.6q0 0.1 0 0.2q-0.1 0-0.1 0c0-0.1-0.1-0.1-0.1-0.2q0 0 0 0q0 0 0 0q0-0.1 0.1-0.2q0-0.1 0.1 0q0 0.1 0 0.2z" />
			<path id="Layer" class="s7" d="m28.2 32.9q0 0.1-0.1 0.2q0 0.1 0 0q-0.1-0.1-0.1-0.1q-0.1-0.1-0.1-0.1q0 0 0.1 0q0-0.1 0-0.1q0.1-0.1 0.1 0c0 0 0.1 0.1 0.1 0.1z" />
			<path id="Layer" class="s7" d="m28.3 33q0 0 0 0.1q0 0 0 0q0.1 0.1 0.1 0.1q0 0.2-0.1 0.3q0 0 0-0.1q-0.1 0-0.1 0q0-0.1 0-0.2q0 0 0-0.1q0 0 0.1 0q0-0.1 0-0.1z" />
			<path id="Layer" class="s7" d="m28 33.2q0 0.2-0.1 0.2q0 0.1 0 0q-0.1 0-0.1-0.1q0-0.1 0.1-0.2q0-0.1 0 0q0.1 0.1 0.1 0.1z" />
			<path id="Layer" class="s7" d="m27.6 33.6q0.1-0.1 0.1-0.2q0.1 0 0.1 0.1q0 0 0 0.1q0 0.1 0 0.2q0 0-0.1 0q-0.1-0.1-0.1-0.2z" />
			<path id="Layer" class="s7" d="m28.4 33.4q0.2 0.2 0.1 0.3q-0.1 0.1-0.1 0q-0.1 0-0.1-0.1q0 0 0.1-0.1q0 0 0-0.1z" />
			<path id="Layer" class="s6" d="m28.2 32.4q0 0.1-0.1 0.1q0 0.1-0.1 0q0 0 0-0.1q0 0 0-0.1c0 0 0-0.1 0.1-0.1c0 0 0 0.1 0 0.1z" />
			<path id="Layer" class="s6" d="m27.8 32.9q0 0.1 0 0.1c0 0 0 0.1-0.1 0.1c0 0 0 0 0-0.1q-0.1 0-0.1-0.1q0-0.1 0.1-0.1q0 0 0 0q0.1 0 0.1 0.1z" />
			<path id="Layer" class="s6" d="m28.5 32.9q0 0.1 0 0.2q-0.1 0-0.1 0q0-0.1 0-0.1q-0.1 0-0.1-0.1q0 0 0.1-0.1q0 0 0 0q0-0.1 0.1 0q0 0 0 0.1z" />
			<path id="Layer" class="s6" d="m28.3 32.6q0 0 0 0.1c0 0 0 0.1-0.1 0.1c0 0-0.1-0.2 0-0.2q0-0.1 0-0.1q0-0.1 0.1 0q0 0 0 0.1z" />
			<path id="Layer" class="s6" d="m28 32.6q0 0.1-0.1 0.2q0 0 0-0.1c-0.1 0-0.1-0.1-0.1-0.1c0-0.1 0.1-0.1 0.1-0.1c0 0 0.1 0 0.1 0.1c0 0 0 0 0 0z" />
			<path id="Layer" class="s6" d="m27.7 33.3q0 0 0 0q0 0.1-0.1 0.1q0 0 0 0c-0.1 0-0.1-0.1-0.1-0.2q0 0 0.1-0.1q0 0 0 0q0 0 0 0q0 0 0 0z" />
			<path id="Layer" class="s6" d="m28.6 33c0 0.1 0.1 0.2 0 0.4q0 0 0 0q0 0-0.1 0c0-0.2 0-0.3 0.1-0.4z" />
			<path id="Layer" class="s6" d="m28.3 33.7q0 0.1 0 0.2q0 0 0 0.1q0 0 0 0q0 0 0 0q-0.1 0-0.1-0.1q0 0 0-0.1q0 0 0.1-0.1z" />
			<path id="Layer" class="s6" d="m28 33.9q0 0.1 0 0.1q-0.1 0-0.1 0q0 0 0-0.1q0-0.1 0-0.1q0-0.1 0-0.1q0 0 0 0q0 0 0 0q0.1 0.1 0.1 0.1q0 0 0 0.1z" />
			<path id="Layer" class="s6" d="m28 34.1c0-0.1 0-0.2 0.1-0.2c0.1 0 0.1 0.1 0.1 0.2q0 0 0 0q0 0.1-0.1 0.1c0 0-0.1-0.1-0.1-0.1z" />
			<path id="Layer" class="s6" d="m28.7 33.4q0 0 0 0.1q0 0.1 0 0.2q0 0.1 0 0q-0.1 0-0.1-0.1q0 0 0 0q0-0.1 0.1-0.2z" />
			<path id="Layer" class="s6" d="m27.5 33.4c0 0.1 0.1 0.2 0 0.3q0 0.1 0 0.1q0 0 0-0.1q-0.1-0.1 0-0.1q0-0.1 0-0.2z" />
			<path id="Layer" class="s6" d="m27.5 32.8q0 0 0 0.1q0 0.1 0 0.1q0 0.1 0 0.1q-0.1 0-0.1-0.1q0 0 0-0.1q0-0.1 0.1-0.1z" />
			<path id="Layer" class="s6" d="m27.7 32.7c-0.1 0 0 0.1-0.1 0.1c0 0-0.1-0.1-0.1-0.1c0.1-0.1 0.1-0.2 0.1-0.1c0 0 0 0 0.1 0.1z" />
			<path id="Layer" class="s6" d="m27.7 32.3q0.1 0.1 0.1 0.2q0 0.1-0.1 0.1q0 0 0-0.1c-0.1 0 0-0.1 0-0.2z" />
			<path id="Layer" class="s6" d="m28.7 32.9c0 0 0 0.1 0 0.1c-0.1 0-0.1 0-0.1-0.1q0 0 0-0.1q0 0 0.1 0q0-0.1 0 0q0 0 0 0.1z" />
			<path id="Layer" class="s6" d="m28.4 32.3q0.1 0.1 0.1 0.2q-0.1 0-0.1 0q0 0 0 0c-0.1-0.1 0-0.1 0-0.2z" />
			<path id="Layer" class="s6" d="m28.6 32.6q0 0 0 0.1c0 0 0 0.1-0.1 0.1c0 0 0-0.1 0-0.2q0 0 0 0c0 0 0-0.1 0-0.1c0.1 0 0.1 0.1 0.1 0.1z" />
			<path id="Layer" class="s6" d="m27.7 34c0 0 0.1 0.1 0 0.1q0 0.1 0 0.1q0 0 0-0.1q-0.1 0 0-0.1q0 0 0 0z" />
			<path id="Layer" class="s6" d="m28.8 33.1q0 0.1 0 0.1q0 0.1 0 0.2q-0.1-0.1-0.1-0.2q0 0 0.1-0.1z" />
			<path id="Layer" class="s6" d="m27.4 33.4q0 0 0-0.1q0-0.1 0-0.2q0 0.1 0 0.2q0 0.1 0 0.1z" />
			<path id="Layer" class="s6" d="m28.5 33.9c0.1 0.1 0.1 0.1 0.1 0.2q0 0-0.1 0q0 0 0 0c-0.1 0 0-0.1 0-0.2z" />
			<path id="Layer" class="s6" d="m27.8 34.1q0.1 0 0.1 0.1q0.1 0 0.1 0q0 0 0 0.1q0 0-0.1 0q0-0.1 0-0.1q-0.1-0.1-0.1-0.1z" />
			<path id="Layer" class="s6" d="m28.4 34.1q0 0-0.1 0.1q0 0 0 0q0 0 0 0q-0.1 0-0.1 0q0 0 0 0c0.1-0.1 0.1-0.1 0.2-0.1z" />
			<path id="Layer" class="s6" d="m28.6 33.7q0 0 0 0.1q0 0 0 0q0 0 0 0q-0.1 0-0.1 0q0-0.1 0.1-0.1z" />
			<path id="Layer" class="s6" d="m27.6 33.9c0 0 0-0.1 0-0.1q0 0 0 0q0 0 0 0q0 0 0 0q0 0 0 0q0 0 0 0q0 0.1 0 0.1z" />
			<path id="Layer" class="s6" d="m27.9 32.2q0 0 0 0.1q0 0 0 0q0 0 0 0q0 0 0 0q0 0 0 0q0 0-0.1 0q0 0 0 0q0.1-0.1 0.1-0.1z" />
			<path id="Layer" class="s6" d="m28.3 32.2q0 0.1 0 0.1q0 0 0 0q-0.1 0-0.1 0q0-0.1 0.1-0.1z" />
			<g id="Layer">
				<g id="Layer">
					<path id="Layer" class="s8" d="m23.9 29q0.1-0.1 0.2-0.2q0-0.1 0-0.3q0-0.1 0-0.1q0.1 0 0.1 0q0 0 0 0q0 0 0 0q0 0 0 0q0 0.1 0 0.1c0.1 0.3 0.2 0.8-0.2 1.1q-0.2 0.1-0.3 0.1q-0.1 0.1-0.3 0.1q-0.1-0.1-0.3-0.1q-0.1-0.1-0.2-0.3q-0.1-0.2-0.2-0.5q0-0.3 0.2-0.5q-0.1 0-0.2-0.1q-0.2-0.1-0.2-0.2c-0.2-0.3-0.1-0.8 0.2-1q0.4-0.3 0.7 0q0.1 0.1 0.1 0.2q0 0.2-0.1 0.3q-0.1 0-0.1 0q0 0-0.1 0q0 0 0 0q-0.1 0-0.1-0.1c-0.1-0.1 0.1-0.2 0-0.3q-0.1-0.1-0.2 0c-0.1 0.1-0.1 0.4 0 0.7q0.1 0 0.1 0.1q0.1 0 0.1 0q0.1-0.1 0.2-0.2q0 0 0 0q0.1 0 0.1 0q0.1 0 0.1 0q0 0 0.1 0.1q0 0 0 0.1q0 0 0 0.1q0 0-0.1 0q0 0.1 0 0.1q-0.2 0.1-0.3 0.1q-0.1 0.3 0.1 0.6q0.1 0.1 0.1 0.1q0.1 0.1 0.2 0.1q0.1 0 0.2 0q0.1 0 0.1-0.1z" />
				</g>
				<g id="Layer">
					<path id="Layer" class="s8" d="m25.4 27.2q0-0.1 0.1-0.1c0.2-0.2 0.3-0.6 0.1-1c-0.1-0.2-0.2-0.3-0.4-0.2q0 0.1 0 0.3q0.1 1 0.3 2q0.1 0.1 0 0.1c-0.1 0.1-0.3 0.2-0.3 0.2q-0.1 0.1-0.1 0c-0.1-0.2-0.3-1.5-0.3-2q-0.1-0.2 0-0.5c-0.4 0.3-0.5 0.8-0.4 1q0 0.2 0.2 0.1q0 0 0.1-0.1q0 0 0 0q0 0.2-0.1 0.4q0 0.1-0.2 0.2q-0.1 0.1-0.1 0.1q-0.1 0-0.2-0.1q-0.1 0-0.1-0.1q-0.1 0-0.1-0.1c-0.2-0.6 0.3-1.3 1.1-1.7c0.5-0.2 0.9-0.1 1.1 0.2c0.2 0.6-0.2 1.1-0.6 1.3q0 0 0 0q0 0-0.1 0z" />
				</g>
				<g id="Layer">
					<path id="Layer" fill-rule="evenodd" class="s8" d="m28.7 27.7q0-0.1 0-0.1q0 0 0 0q0.1 0 0.1 0q0 0 0 0.1q0 0 0 0q0 0-0.1 0.1q0 0.1-0.1 0.2q-0.1 0.1-0.3 0.1c-0.2 0-0.3-0.1-0.4-0.3q0-0.4 0-0.7q-0.1 0-0.2 0.1q-0.1 0.1-0.1 0.2c-0.1 0.4-0.3 0.9-0.8 1q-0.1 0-0.2 0q-0.1-0.1-0.2-0.1q-0.1-0.1-0.1-0.2q-0.1-0.1-0.1-0.2q0-0.2 0.1-0.3q0.1-0.2 0.3-0.2q0 0 0.1 0q0 0 0 0q0 0 0 0q0 0 0 0c0 0-0.1 0.1 0 0.2q-0.1 0 0 0.1q0 0 0 0q0.1 0.1 0.1 0.1q0 0 0.1-0.1c0.2 0 0.3-0.4 0.5-0.7c0.1-0.3 0.2-0.8 0.4-1q-0.2 0-0.4 0q-0.2 0-0.2 0.1q-0.1 0.1-0.1 0.2q0 0.1 0 0.1q0 0 0 0q0 0.1 0.1 0.1q0 0 0 0c0.1 0 0.1-0.1 0.1-0.1q0 0 0.1 0q0 0 0 0q0 0 0 0q0 0 0 0q0 0.2-0.1 0.3q-0.1 0.2-0.3 0.2q-0.1 0-0.1 0q-0.1 0-0.2-0.1q0-0.1-0.1-0.1q0-0.1 0-0.2c-0.1-0.4 0.2-0.7 0.6-0.7c0.4-0.1 0.6 0 0.8 0q0.2-0.1 0.5-0.2q0 0 0 0q0 0 0 0q0 0 0 0.1q0 0 0 0c0 0 0 0.1 0 0.4q-0.1 0.7-0.1 1.5q0 0.2 0.2 0.2c0 0 0-0.1 0.1-0.1zm-0.7-0.9q0-0.4 0.1-0.8q-0.3 0.4-0.4 0.9z" />
				</g>
				<g id="Layer">
					<path id="Layer" class="s8" d="m30.8 25.9c0 0.2-0.1 0.4-0.2 0.4q-0.1 0-0.1 0q-0.1 0-0.1 0q0 0 0-0.1q-0.1 0-0.1 0c0-0.2 0.2-0.2 0.2-0.4q0 0-0.1-0.1q0 0 0 0q0 0-0.1 0q0 0 0 0c-0.4 0-0.7 0.8-0.6 1.6c0.1 0.4 0.3 0.6 0.6 0.5q0.1 0 0.2-0.1q0.1-0.1 0.2-0.2q0.1-0.1 0.1-0.1q0 0 0 0q0 0 0 0q0 0 0 0q0 0 0 0q0 0.1 0 0.2c0 0.2-0.3 0.7-0.8 0.8c-0.5 0-0.8-0.2-0.9-0.9c-0.2-1 0.4-2 1.1-2.1q0.1 0 0.2 0q0.1 0.1 0.2 0.1q0.1 0.1 0.1 0.2q0.1 0.1 0.1 0.2z" />
				</g>
				<g id="Layer">
					<path id="Layer" class="s8" d="m33 28.9q0.1 0.1 0.1 0c0.1 0 0.1 0 0.1 0q0 0 0 0q0 0 0 0.1q0 0 0 0.1q-0.2 0-0.3 0.1q-0.1 0-0.2-0.1c-0.3 0-0.3-0.2-0.2-0.5q0.1-0.3 0.3-0.6q-0.2-0.1-0.5 0c-0.1 0.1-0.4 0.6-0.5 0.8q0 0.1 0 0c-0.1 0-0.3-0.1-0.4-0.1q-0.1 0 0-0.1c0.1-0.3 0.8-1.2 1-1.8q0 0 0 0q0 0 0-0.1q-0.1 0-0.1 0q0 0 0 0c-0.3-0.1-0.7 0.1-0.7 0.4q-0.1 0.2 0 0.2c0.1 0.1 0.1 0 0.2 0q0 0.1 0 0.1q-0.1 0.1-0.3 0.2q-0.1 0-0.2 0q-0.1 0-0.2-0.1q0 0-0.1-0.1q0-0.1 0-0.2q0 0 0-0.1c0.2-0.6 0.9-0.8 1.4-0.6q0.5 0.2 0.4 0.6q-0.2 0.3-0.3 0.6l0.4 0.1c0.1-0.3 0.3-0.5 0.4-0.6c0.1-0.2 0.4-0.2 0.5-0.2q0.1 0.1 0.1 0.1c0 0.1-0.1 0.1-0.2 0.2q-0.4 0.7-0.8 1.4q0 0.2 0.1 0.2z" />
				</g>
				<g id="Layer">
					<path id="Layer" class="s8" d="m34.9 30q0.1 0 0.2-0.1q0.1-0.1 0.2-0.2q0.1-0.1 0.1-0.1q0 0 0 0q0 0 0 0q0 0 0 0q0.1 0 0.1 0q0 0.1-0.1 0.2c0 0.2-0.2 0.8-0.8 0.8q-0.2 0.1-0.3 0q-0.2 0-0.3-0.1q-0.2-0.1-0.3-0.3q0-0.1-0.1-0.3q0-0.3 0.1-0.6q0.2-0.3 0.5-0.5q-0.3-0.2-0.3-0.5c-0.1-0.4 0.3-0.8 0.8-0.9c0.3 0 0.6 0.1 0.6 0.4c0.1 0.3 0 0.5-0.2 0.5q-0.1 0-0.1 0q-0.1 0-0.1 0q0-0.1 0-0.1q-0.1 0-0.1-0.1c0-0.2 0.2-0.2 0.2-0.3q0-0.2-0.2-0.1c-0.2 0-0.4 0.3-0.3 0.6c0 0.2 0.1 0.3 0.1 0.3q0.1-0.1 0.2-0.1q0.1 0 0.1 0q0.1 0 0.1 0.1q0 0 0.1 0q0 0.1 0 0.1q0 0.1 0 0.1q0 0.1-0.1 0.1q0 0-0.1 0.1q0 0-0.1 0q-0.2 0-0.3-0.1q-0.2 0.3-0.2 0.7q0 0.1 0.1 0.2q0 0.1 0.1 0.1q0.1 0.1 0.2 0.1q0.1 0.1 0.2 0z" />
				</g>
				<g id="Layer">
					<path id="Layer" class="s8" d="m22 27.4q0 0.1-0.1 0.2q0 0.1-0.1 0.2c-0.2 0.3 0.4 1.8 0.7 2.6c0.2 0.3-0.8 0.5-0.8 0.4c0.3-0.4-0.3-2-0.3-2.5q-0.1-0.2 0-0.4q-0.2 0.1-0.4 0.2q-0.2 0.1-0.2 0.2q-0.1 0.2 0 0.3q0 0.1 0 0.1q0 0 0.1 0q0 0 0 0q0.1 0 0.1 0c0.1 0 0.1-0.1 0.1-0.1q0 0 0 0q0 0 0 0q0 0 0.1 0q0 0 0 0q0 0.2 0 0.4q-0.1 0.2-0.3 0.3q-0.1 0-0.2 0.1q-0.1 0-0.2-0.1q-0.1 0-0.1-0.1q-0.1 0-0.1-0.1c-0.3-0.5 0-0.9 0.4-1.2c0.4-0.2 0.7-0.3 0.9-0.4c0.3-0.2 0.3-0.3 0.3-0.4c0.1 0 0.1 0 0.1 0.1q0 0.1 0 0.2z" />
				</g>
				<g id="Layer">
					<path id="Layer" class="s8" d="m35.9 27.8h-0.1v0.3h-0.1v-0.3h-0.1z" />
				</g>
				<g id="Layer">
					<path id="Layer" class="s8" d="m36.2 27.7h0.1v0.4v-0.2q0 0 0-0.1l-0.1 0.3h-0.1v-0.3q0 0 0 0v0.1v0.2h-0.1v-0.3h0.1l0.1 0.2z" />
				</g>
			</g>
		</g>
	</g>
</svg>