<svg width="265" height="305" viewBox="0 0 265 305" fill="none" xmlns="http://www.w3.org/2000/svg">
<g clip-path="url(#clip0_2_3)">
<path d="M180.213 35.5108C178.06 35.3994 176.488 36.9104 175.083 38.4009C173.348 40.2275 171.592 42.0226 169.95 43.9228C168.309 45.823 166.893 47.3659 165.23 49.0001C165.15 49.0681 165.094 49.1598 165.071 49.2618C165.047 49.3639 165.056 49.4709 165.097 49.5671V49.5671L145.435 70.4201L119.562 97.8887L107.985 110.262C106.632 110.652 106.069 111.965 105.14 112.833C103.646 114.323 102.23 115.888 100.896 117.522L100.765 117.446L100.824 117.714L93.0855 125.965C91.7222 126.95 90.5102 128.13 89.4885 129.467C86.6247 132.339 83.8462 135.299 81.0967 138.276C80.289 139.136 79.5458 140.053 78.7074 140.798C78.6102 140.905 78.5389 141.034 78.4989 141.173C78.459 141.312 78.4514 141.459 78.477 141.601C78.1806 141.879 77.8551 142.139 77.5795 142.448L65.0371 155.786L36.9366 185.597L25.2004 197.976C24.0832 198.864 23.0233 199.823 22.0273 200.845C19.5682 202.855 17.2168 204.994 14.9831 207.253C14.405 207.817 14.2843 208.8 13.4176 209.022L12.5784 210.273C12.582 211.446 11.5226 212.102 11.1194 213.137C10.3587 215.546 10.415 218.137 11.2794 220.505C12.3441 223.375 14.2012 225.882 16.6348 227.733C18.8284 229.76 20.982 231.823 23.2916 233.683C24.7229 234.965 26.2547 236.129 27.8722 237.166C28.1931 237.351 28.6943 237.426 28.6681 237.977L37.4843 243.925C38.0624 243.732 38.3709 244.242 38.7332 244.49C42.4751 247.025 46.5412 249.044 50.8225 250.494C56.3603 252.44 62.0587 253.896 67.8526 254.845C72.907 255.613 78.0179 255.954 83.1315 255.864C87.8593 255.824 92.5817 255.516 97.2762 254.941C100.962 254.51 104.624 253.89 108.247 253.082C111.311 252.355 114.3 251.388 117.284 250.497C120.268 249.606 123.919 248.3 127.113 246.945C133.179 244.42 139.135 241.715 144.977 238.67C151.589 235.227 157.852 231.147 163.677 226.488C167.494 223.473 171.07 220.163 174.37 216.589C176.773 213.977 179.14 211.325 181.363 208.552C183.046 206.48 184.614 204.303 186.31 202.24C188.824 199.056 191.158 195.734 193.3 192.289C195.304 189.155 197.156 185.913 198.883 182.619C200.356 179.764 201.824 176.885 203.216 174.002C204.608 171.119 206.039 167.732 207.308 164.524C209.365 159.488 211.125 154.337 212.579 149.095C214.181 142.78 215.165 136.326 215.519 129.824C215.841 123.941 215.85 118.047 215.545 112.166C215.227 106.657 214.384 101.193 213.026 95.8479C210.779 86.7508 207.903 77.8228 204.419 69.1287C202.082 63.0067 199.269 57.0785 196.007 51.3984C193.615 47.3251 191.308 43.2038 188.523 39.3721C187.549 38.109 186.286 37.0992 184.84 36.4273C183.394 35.7554 181.807 35.4411 180.213 35.5108V35.5108ZM192.718 107.784C192.714 107.833 192.725 107.883 192.747 107.927C192.77 107.971 192.804 108.008 192.846 108.034C192.804 108.008 192.77 107.971 192.747 107.927C192.725 107.883 192.714 107.833 192.718 107.784V107.784ZM193.061 108.099C193.013 108.141 192.981 108.198 192.968 108.26C192.981 108.198 193.013 108.141 193.061 108.099V108.099ZM185.693 85.6653C185.667 85.6263 185.633 85.5939 185.592 85.5706C185.552 85.5472 185.507 85.5335 185.46 85.5306V85.5306C185.533 85.5534 185.595 85.6029 185.633 85.6694L185.693 85.6653Z" fill="white"/>
<g style="mix-blend-mode:multiply">
<path d="M8.67453 212.993L9.54521 211.721C10.4687 211.435 10.6086 210.384 11.1614 209.865C13.5368 207.569 15.8977 205.265 18.4766 203.223C19.5103 202.16 20.6154 201.169 21.784 200.256C21.1528 201.686 22.1644 202.427 22.9642 203.298C23.0801 202.623 23.2777 201.964 23.5525 201.336C23.8904 200.751 24.5138 199.94 25.1847 200.327C25.8555 200.715 25.0955 201.29 24.8083 201.788C24.6412 202.036 24.5296 202.318 24.4812 202.613C24.4327 202.909 24.4486 203.211 24.5278 203.5C24.6069 203.788 24.7473 204.056 24.9396 204.284C25.1318 204.513 25.3712 204.697 25.6414 204.824C26.006 205.035 26.5164 205.329 26.0273 206.042C25.5382 206.754 25.8422 206.969 26.2636 207.485C28.2828 210.016 30.7857 212.047 32.9815 214.407C33.998 215.482 35.1135 216.459 36.3134 217.325C39.9113 219.731 43.6783 221.873 47.5851 223.735C50.8281 225.393 54.1602 226.829 57.5176 228.221C59.726 229.145 61.9658 230.048 64.2271 230.847C66.8953 231.783 69.6019 232.584 72.3146 233.409C72.5187 233.527 73.1021 233.864 73.113 233.071C73.1239 232.277 73.2038 231.465 73.2377 230.665C73.3751 226.083 73.4749 221.498 73.6645 216.926C73.9234 211.223 74.2405 205.555 74.5432 199.877C74.8458 194.2 75.1707 188.282 75.4281 182.482C75.7863 174.788 76.0547 167.082 76.3899 159.395C76.6042 154.174 76.9167 148.952 77.0703 143.735C77.095 143.086 77.5004 142.383 77.0399 141.766C77.017 141.618 77.0273 141.467 77.0701 141.323C77.1129 141.179 77.1871 141.046 77.2873 140.934C78.1684 140.088 79.0066 139.198 79.7986 138.268C82.6532 135.176 85.5516 132.109 88.5206 129.123C89.5803 127.712 90.8478 126.47 92.2795 125.441C92.7701 125.724 93.2279 126.06 93.645 126.444C97.0066 129.984 100.488 133.418 103.705 137.109C108.398 142.452 112.947 147.809 117.397 153.304C121.616 158.491 125.693 163.79 129.663 169.105C135.451 176.797 140.892 184.717 146.459 192.555C148.176 194.97 149.95 197.32 151.675 199.721C152.112 200.344 152.325 200.447 153.01 199.867C155.571 197.742 158.018 195.482 160.34 193.098C164.09 189.196 167.94 185.392 171.604 181.402C175.269 177.412 178.537 173.369 181.711 169.116C183.795 166.442 185.655 163.602 187.275 160.624C188.801 157.628 190.152 154.546 191.321 151.393C191.549 150.998 191.487 150.669 190.832 150.389C187.704 149.071 184.436 147.691 181.242 146.354C176.767 144.473 172.247 142.702 167.727 140.931C161.387 138.441 154.85 136.091 148.362 133.788C143.345 132.004 138.275 130.344 133.222 128.656C128.79 127.17 124.336 125.691 119.871 124.264C117.39 123.475 114.935 122.507 112.405 121.904C108.163 120.736 104.109 118.967 100.368 116.652C101.82 115.012 103.166 113.254 104.767 111.76C105.742 110.879 106.317 109.514 107.724 109.097C109.537 110.017 111.449 110.728 113.423 111.217C119.824 113.333 126.308 115.204 132.709 117.319C138.4 119.181 144.032 121.282 149.682 123.217C157.43 125.896 165.116 128.715 172.714 131.755C179.567 134.503 186.367 137.375 193.117 140.2C194.133 140.63 194.398 140.373 194.581 139.348C196.064 131.569 196.187 123.594 194.946 115.78C194.185 111.44 193.206 107.208 192.253 102.931C191.118 98.1606 189.747 93.5649 188.279 88.9333C185.855 81.8568 183.07 74.9103 179.936 68.1212C177.709 62.3947 174.845 56.9393 171.397 51.8582C170.082 49.7974 168.611 47.8401 166.999 46.0032C166.957 45.9039 166.947 45.7939 166.969 45.6882C166.992 45.5826 167.047 45.4865 167.126 45.4131C168.844 43.7518 170.411 41.9457 172.081 40.1985C173.751 38.4512 175.665 36.4158 177.474 34.4952C178.936 32.9399 180.565 31.3642 182.816 31.4738C184.46 31.4055 186.095 31.732 187.585 32.4261C189.075 33.1202 190.377 34.1617 191.382 35.4637C194.18 39.4861 196.775 43.6469 199.157 47.9305C202.562 53.8431 205.5 60.0138 207.946 66.3865C211.572 75.4106 214.556 84.6816 216.876 94.1304C218.299 99.678 219.177 105.353 219.5 111.074C219.82 117.175 219.809 123.289 219.464 129.39C219.059 136.145 217.991 142.846 216.275 149.396C214.772 154.845 212.946 160.2 210.808 165.433C209.495 168.752 208.1 172.043 206.56 175.25C205.019 178.457 203.56 181.321 202.07 184.205C200.296 187.648 198.368 191.021 196.267 194.256C194.045 197.838 191.617 201.289 188.997 204.591C187.258 206.727 185.625 208.984 183.878 211.135C181.572 214.017 179.108 216.769 176.624 219.489C173.218 223.193 169.532 226.628 165.598 229.762C159.552 234.601 153.058 238.846 146.203 242.44C140.143 245.593 133.954 248.399 127.641 251.015C124.294 252.399 120.861 253.596 117.383 254.67C114.273 255.644 111.161 256.657 108.019 257.417C104.256 258.259 100.451 258.901 96.6214 259.342C91.7648 259.957 86.8767 260.281 81.9832 260.312C76.6633 260.423 71.3448 260.08 66.0855 259.287C60.0465 258.295 54.1092 256.767 48.3438 254.72C43.9205 253.215 39.7173 251.129 35.8438 248.518C35.4355 248.282 35.1523 247.728 34.5282 247.934L25.379 241.754C25.4136 241.189 24.8831 241.097 24.5623 240.912C22.8827 239.835 21.2931 238.624 19.8089 237.29C17.4058 235.356 15.1585 233.22 12.8858 231.127C10.6132 229.035 8.23697 226.785 7.32938 223.609C6.43579 221.144 6.37797 218.451 7.16484 215.945C7.56188 214.887 8.65053 214.248 8.67453 212.993ZM188.406 84.2667L188.636 84.5753C188.589 84.7982 188.604 85.0298 188.678 85.2448C188.753 85.4598 188.885 85.6501 189.06 85.7951C189.012 85.9048 188.998 86.0264 189.021 86.1439C189.043 86.2613 189.101 86.3691 189.186 86.4529C189.186 86.4529 189.397 86.4577 189.382 86.4493C189.415 86.1563 189.402 85.8757 189.037 85.8013C189.299 85.3478 188.983 84.9511 188.772 84.5757L188.59 84.2171L188.521 83.8651C188.541 83.8115 188.547 83.7543 188.541 83.6978C188.535 83.6412 188.516 83.587 188.485 83.5391C188.454 83.4913 188.413 83.4511 188.364 83.4218C188.316 83.3925 188.261 83.3748 188.205 83.3701L188.306 83.1945L188.204 83.1356L188.274 83.3514L188.331 83.8918L188.406 84.2667ZM196.129 106.827L196.034 106.285C196.011 106.155 195.958 106.046 195.771 106.133L195.826 106.341C195.787 106.611 195.819 106.824 196.15 106.859C195.951 106.9 195.918 107.057 195.947 107.21C195.967 107.242 195.995 107.268 196.028 107.286C196.061 107.304 196.099 107.313 196.136 107.312C196.174 107.311 196.211 107.301 196.243 107.281C196.276 107.262 196.303 107.235 196.322 107.202C196.341 107.169 196.351 107.132 196.351 107.094C196.352 107.057 196.343 107.019 196.324 106.986C196.306 106.953 196.28 106.925 196.248 106.906C196.215 106.886 196.179 106.875 196.141 106.873L196.129 106.827ZM101.223 235.509C101.419 235.505 101.732 235.569 101.68 235.324C101.627 235.079 101.343 235.266 101.176 235.287L100.487 235.571C99.9907 235.285 99.5139 235.673 99.0487 235.873L98.4899 235.999C98.6426 236.34 98.8545 236.209 99.1017 236.118L100.566 235.871C100.699 235.88 100.831 235.851 100.948 235.787C101.064 235.722 101.159 235.626 101.223 235.509V235.509ZM171.93 190.504C172.182 190.378 172.392 190.181 172.533 189.936C172.675 189.691 172.741 189.411 172.724 189.129L171.879 190.592C171.22 190.621 170.879 191.146 170.529 191.549C167.937 194.422 165.167 197.133 162.36 199.804C160.544 201.661 158.632 203.422 156.631 205.079C156.386 205.269 156.001 205.632 156.33 205.939C156.658 206.245 156.901 205.859 157.134 205.623C157.857 204.909 158.595 204.204 159.348 203.507C163.791 199.425 167.983 195.078 171.901 190.487L171.93 190.504ZM107.05 239.595L107.219 239.302L106.989 239.364C105.369 239.678 103.761 240.037 102.121 240.319C100.48 240.601 98.7486 240.771 97.0643 241.028C95.3849 241.433 93.7305 241.936 92.1097 242.536C94.0178 242.857 95.9745 242.747 97.8371 242.215C100.987 241.685 104.068 240.801 107.021 239.578L107.05 239.595ZM197.954 135.56C198.893 133.24 199.397 130.767 199.443 128.266C199.41 122.571 198.672 116.903 197.246 111.393C197.15 110.986 197.211 110.476 196.745 110.206C196.634 110.318 196.558 110.459 196.525 110.612C196.491 110.766 196.502 110.925 196.556 111.072C197.287 115.396 197.366 119.772 197.67 124.063C197.98 127.87 197.92 131.679 198.019 135.481L198.043 135.709L198.094 135.622L197.954 135.56ZM87.7212 135.391L87.6676 138.851C87.531 142.927 87.4613 147.022 87.235 151.086C87.0086 155.149 86.8559 159.488 86.6433 163.696C86.4007 168.764 86.2709 173.839 86.0114 178.936C85.808 182.993 85.5064 187.052 85.3177 191.117C85.0781 196.012 84.9139 200.91 84.7119 205.807C84.51 210.703 84.1783 215.252 84.0363 219.91C83.8943 224.568 83.7953 229.387 83.6195 234.104C83.6002 234.912 83.6853 235.371 84.7431 235.357C87.4792 235.402 90.2139 235.177 92.9078 234.687C96.7526 233.83 100.526 232.676 104.195 231.236C118.536 225.915 131.851 218.137 143.542 208.25C144.367 207.595 144.361 207.202 143.789 206.442C139.927 201.208 136.088 195.969 132.297 190.679C128.77 185.775 125.518 180.698 121.793 175.934C119.224 172.637 116.832 169.168 114.276 165.917C111.992 162.902 109.788 159.815 107.344 156.941C105.527 154.8 103.696 152.65 101.848 150.53C99.4018 147.694 97.0587 144.781 94.5014 142.036C92.4126 139.637 90.1356 137.409 87.692 135.374L87.7212 135.391ZM111.928 229.596C112.45 229.699 112.992 229.61 113.454 229.345C119.684 226.646 125.728 223.535 131.548 220.032C136.359 217.203 140.874 213.895 145.025 210.16C145.418 209.782 145.974 209.46 145.515 208.941C145.056 208.422 144.599 209.114 144.282 209.36C141.033 211.854 137.941 214.516 134.516 216.811C128.401 220.908 122.015 224.586 115.405 227.819C114.19 228.294 113.026 228.89 111.928 229.596V229.596ZM192.633 155.252C191.187 157.284 190.149 159.553 188.77 161.605C186.406 165.194 184.282 168.942 181.728 172.422C180.194 174.54 178.768 176.74 177.284 178.907C178.949 177.187 180.499 175.358 181.923 173.432C185.063 169.003 188.145 164.54 190.938 159.872C191.814 158.458 192.394 156.881 192.641 155.237L192.633 155.252ZM164.441 191.35L164.252 191.24L159.803 195.577C157.796 197.539 155.879 199.612 153.707 201.421C153.516 201.583 153.244 201.719 153.497 202.021C153.75 202.323 153.918 202.167 154.143 201.945C154.368 201.724 154.612 201.572 154.828 201.366C156.856 199.435 158.972 197.555 160.893 195.543C162.123 194.186 163.24 192.724 164.441 191.35ZM192.863 187.59C194.987 184.349 198.079 181.687 199.489 177.898L192.863 187.59ZM168.239 187.398C168.67 186.652 169.638 186.255 169.871 185.414C169.303 186.062 168.421 186.411 168.239 187.398ZM167.776 187.696C167.568 187.805 167.384 187.957 167.238 188.141C167.091 188.325 166.985 188.538 166.925 188.766C167.344 188.578 167.472 188.223 167.784 187.682L167.776 187.696ZM102.549 235.299L102.549 235.065C102.467 235.069 102.388 235.099 102.324 235.15C102.324 235.15 102.274 235.238 102.321 235.324L102.549 235.299ZM196.341 108.042C196.296 107.919 196.288 107.797 196.232 107.726C196.176 107.654 196.101 107.65 196.156 107.857C196.145 107.938 196.158 108.021 196.195 108.094C196.195 108.094 196.268 108 196.341 108.042Z" fill="#166938"/>
</g>
<g style="mix-blend-mode:multiply">
<path d="M108.106 109.279C112.098 104.99 116.1 100.708 120.112 96.4311L147.012 67.8581L167.425 46.2097C169.037 48.0466 170.507 50.0039 171.822 52.0647C175.27 57.1458 178.134 62.6012 180.361 68.3278C183.496 75.1168 186.28 82.0633 188.704 89.1398C190.197 93.7275 191.642 98.3653 192.678 103.138C193.632 107.414 194.593 111.676 195.371 115.987C196.612 123.801 196.489 131.775 195.006 139.554C194.837 140.588 194.558 140.836 193.542 140.406C186.749 137.557 179.94 134.699 173.139 131.962C165.542 128.921 157.855 126.103 150.121 123.432C144.451 121.465 138.849 119.382 133.134 117.526C126.733 115.41 120.249 113.539 113.848 111.424C111.857 110.933 109.93 110.213 108.106 109.279V109.279Z" fill="#CADF81"/>
</g>
<g style="mix-blend-mode:multiply">
<path d="M92.5835 125.655L100.621 117.09L100.764 116.841C104.505 119.157 108.559 120.925 112.801 122.094C115.315 122.726 117.726 123.669 120.267 124.454C124.732 125.881 129.187 127.36 133.618 128.846C138.671 130.534 143.741 132.193 148.758 133.978C155.216 136.263 161.667 138.563 168.124 141.121C172.643 142.892 177.163 144.662 181.638 146.544C184.774 147.847 188.042 149.227 191.228 150.579C191.883 150.859 191.887 151.154 191.732 151.591C190.55 154.738 189.194 157.817 187.671 160.814C186.059 163.796 184.197 166.637 182.108 169.306C178.933 173.559 175.594 177.658 172 181.591C168.407 185.525 164.486 189.386 160.736 193.288C158.413 195.669 155.971 197.931 153.42 200.065C152.721 200.637 152.508 200.533 152.071 199.91C150.36 197.518 148.572 195.159 146.87 192.753C141.288 184.907 135.847 176.986 130.059 169.295C126.031 163.946 121.954 158.647 117.793 153.494C113.343 147.999 108.75 142.616 104.101 137.299C100.884 133.608 97.4027 130.174 94.041 126.633C93.5939 126.253 93.1049 125.925 92.5835 125.655Z" fill="#CADF81"/>
</g>
<g style="mix-blend-mode:multiply">
<path d="M87.979 135.618C90.4203 137.658 92.6945 139.891 94.78 142.295C97.3373 145.039 99.6804 147.952 102.126 150.788C103.975 152.909 105.806 155.058 107.637 157.208C110.066 160.073 112.27 163.16 114.554 166.176C117.035 169.558 119.486 172.924 122.072 176.192C125.796 180.956 129.046 186.071 132.576 190.937C136.366 196.227 140.205 201.467 144.067 206.7C144.631 207.475 144.652 207.877 143.82 208.509C132.125 218.368 118.813 226.12 104.478 231.42C100.809 232.859 97.0358 234.013 93.191 234.871C90.4971 235.361 87.7625 235.585 85.0263 235.54C83.9685 235.554 83.8833 235.095 83.9027 234.287C84.0347 229.545 84.1061 224.807 84.3195 220.093C84.533 215.379 84.8239 210.631 84.9866 206.005C85.1494 201.378 85.3613 196.195 85.6009 191.3C85.7896 187.235 86.0912 183.176 86.2945 179.119C86.5372 174.051 86.667 168.977 86.9265 163.879C87.1391 159.672 87.2826 155.483 87.5182 151.269C87.7538 147.055 87.8059 143.125 87.9509 139.034L87.979 135.618Z" fill="#CADF81"/>
</g>
<g style="mix-blend-mode:multiply">
<path d="M22.0542 200.529C26.1073 196.237 30.1895 191.962 34.228 187.662L63.395 156.711L76.4633 142.799C76.7535 142.498 77.0728 142.215 77.4007 141.916C77.8128 142.583 77.4073 143.286 77.4165 143.876C77.2628 149.093 76.9649 154.324 76.7361 159.537C76.4493 167.174 76.1325 174.93 75.7888 182.631C75.5591 188.351 75.1843 194.22 74.8894 200.019C74.5944 205.817 74.2841 211.373 74.0253 217.076C73.8211 221.639 73.7212 226.224 73.5838 230.807C73.5499 231.606 73.47 232.418 73.4592 233.212C73.4483 234.005 72.8902 233.625 72.6607 233.551C69.9626 232.734 67.2414 231.924 64.5733 230.988C62.3119 230.19 60.0721 229.287 57.8638 228.363C54.5064 226.971 51.1743 225.534 47.9313 223.877C44.0368 221.989 40.2839 219.822 36.7018 217.393C35.5019 216.528 34.3864 215.551 33.37 214.475C31.1657 212.129 28.6712 210.085 26.652 207.553C26.2306 207.037 26.0764 206.597 26.4157 206.11C26.7551 205.623 26.386 205.118 26.0298 204.892C25.7615 204.766 25.5238 204.584 25.3329 204.357C25.142 204.13 25.0025 203.864 24.9239 203.578C24.8453 203.292 24.8296 202.992 24.8777 202.699C24.9259 202.405 25.0367 202.126 25.2028 201.879C25.4984 201.367 26.2086 200.743 25.573 200.396C24.9375 200.048 24.268 200.871 23.9409 201.404C23.6682 202.029 23.4782 202.686 23.3756 203.36C22.4768 202.626 21.4398 201.93 22.0542 200.529Z" fill="#CADF81"/>
</g>
<g style="mix-blend-mode:multiply">
<path d="M112.215 229.84C113.328 229.14 114.507 228.553 115.735 228.088C122.346 224.855 128.731 221.177 134.847 217.08C138.263 214.8 141.364 212.123 144.612 209.629C144.944 209.392 145.317 208.612 145.846 209.21C146.376 209.808 145.764 210.06 145.356 210.429C141.215 214.137 136.714 217.419 131.921 220.228C126.107 223.741 120.062 226.852 113.827 229.541C113.347 229.844 112.77 229.951 112.215 229.84V229.84Z" fill="#CADF81"/>
</g>
<g style="mix-blend-mode:multiply">
<path d="M198.235 135.781C198.159 131.972 198.204 128.156 197.894 124.349C197.532 120.024 197.528 115.652 196.794 111.366C196.739 111.219 196.726 111.059 196.757 110.904C196.788 110.75 196.861 110.607 196.969 110.492C197.435 110.761 197.374 111.272 197.47 111.678C198.902 117.187 199.64 122.856 199.667 128.552C199.621 131.053 199.117 133.525 198.178 135.846L198.235 135.781Z" fill="#CADF81"/>
</g>
<g style="mix-blend-mode:multiply">
<path d="M192.928 155.481C192.665 157.115 192.089 158.684 191.233 160.101C188.426 164.761 185.344 169.224 182.204 173.652C180.787 175.584 179.236 177.413 177.565 179.128C179.049 176.961 180.475 174.761 182.023 172.651C184.562 169.162 186.702 165.423 189.051 161.825C190.445 159.782 191.482 157.514 192.928 155.481Z" fill="#CADF81"/>
</g>
<g style="mix-blend-mode:multiply">
<path d="M107.293 239.813C104.312 241.031 101.201 241.899 98.0221 242.4C96.1574 242.936 94.1983 243.05 92.2862 242.736C93.9132 242.129 95.5781 241.631 97.27 241.244C98.9627 240.973 100.657 240.8 102.35 240.529C104.042 240.258 105.598 239.888 107.203 239.566C107.226 239.651 107.256 239.734 107.293 239.813V239.813Z" fill="#CADF81"/>
</g>
<g style="mix-blend-mode:multiply">
<path d="M172.202 190.739C168.283 195.301 164.098 199.626 159.668 203.692L157.455 205.808C157.222 206.044 156.95 206.414 156.65 206.124C156.351 205.834 156.707 205.454 156.952 205.264C158.952 203.607 160.865 201.846 162.681 199.989C165.487 197.318 168.258 194.607 170.85 191.734C171.214 191.339 171.541 190.807 172.2 190.777L172.202 190.739Z" fill="#CADF81"/>
</g>
<g style="mix-blend-mode:multiply">
<path d="M164.714 191.585C163.527 192.968 162.41 194.43 161.13 195.738C159.172 197.749 157.094 199.631 155.065 201.561C154.922 201.81 154.582 201.926 154.38 202.141C154.178 202.356 153.946 202.456 153.734 202.216C153.522 201.977 153.753 201.779 153.944 201.616C156.131 199.816 158.106 197.777 160.04 195.773L164.489 191.436L164.714 191.585Z" fill="#CADF81"/>
</g>
<g style="mix-blend-mode:multiply">
<path d="M193.135 187.825L199.762 178.133C198.352 181.922 195.259 184.584 193.135 187.825Z" fill="#CADF81"/>
</g>
<g style="mix-blend-mode:multiply">
<path d="M168.56 187.583C168.733 186.61 169.624 186.247 170.192 185.6C169.923 186.537 168.966 186.881 168.56 187.583Z" fill="#CADF81"/>
</g>
<g style="mix-blend-mode:multiply">
<path d="M99.3358 236.116C99.801 235.917 100.236 235.602 100.774 235.815L100.853 236.115L99.4033 236.37C99.3866 236.284 99.364 236.199 99.3358 236.116V236.116Z" fill="#CADF81"/>
</g>
<g style="mix-blend-mode:multiply">
<path d="M172.2 190.777L173.045 189.314C173.062 189.596 172.995 189.877 172.854 190.121C172.713 190.366 172.503 190.563 172.251 190.689L172.2 190.777Z" fill="#CADF81"/>
</g>
<g style="mix-blend-mode:multiply">
<path d="M168.071 187.925C167.759 188.467 167.573 188.788 167.221 188.995C167.28 188.767 167.387 188.554 167.533 188.37C167.68 188.186 167.863 188.035 168.071 187.925Z" fill="#CADF81"/>
</g>
<g style="mix-blend-mode:multiply">
<path d="M101.51 235.753C101.447 235.87 101.351 235.966 101.235 236.03C101.118 236.095 100.986 236.124 100.853 236.115L100.774 235.815L101.463 235.531L101.51 235.753Z" fill="#CADF81"/>
</g>
<g style="mix-blend-mode:multiply">
<path d="M99.4034 236.37C99.1669 236.409 98.9297 236.584 98.777 236.242L99.3358 236.116C99.3641 236.199 99.3866 236.284 99.4034 236.37Z" fill="#CADF81"/>
</g>
<g style="mix-blend-mode:multiply">
<path d="M101.463 235.531C101.63 235.51 101.916 235.285 101.967 235.568C102.017 235.85 101.706 235.749 101.51 235.753L101.463 235.531Z" fill="#CADF81"/>
</g>
<g style="mix-blend-mode:multiply">
<path d="M102.87 235.485L102.642 235.509C102.642 235.509 102.614 235.356 102.645 235.335C102.677 235.314 102.792 235.283 102.869 235.25L102.87 235.485Z" fill="#CADF81"/>
</g>
<g style="mix-blend-mode:multiply">
<path d="M196.335 106.537L196.416 107.071C196.086 107.036 196.037 106.852 196.084 106.567L196.335 106.537Z" fill="#CADF81"/>
</g>
<g style="mix-blend-mode:multiply">
<path d="M196.416 107.071C196.475 107.124 196.511 107.198 196.516 107.278C196.521 107.357 196.495 107.436 196.443 107.496C196.443 107.496 196.311 107.42 196.282 107.404C196.253 107.387 196.272 107.085 196.485 107.052L196.416 107.071Z" fill="#CADF81"/>
</g>
<g style="mix-blend-mode:multiply">
<path d="M196.662 108.227C196.589 108.185 196.449 108.26 196.443 108.237C196.436 108.214 196.414 108.084 196.404 108.001C196.394 107.917 196.497 107.84 196.553 107.911C196.609 107.982 196.631 108.112 196.662 108.227Z" fill="#CADF81"/>
</g>
<g style="mix-blend-mode:multiply">
<path d="M196.122 106.57L196.075 106.348C196.245 106.29 196.265 106.457 196.352 106.508L196.122 106.57Z" fill="#CADF81"/>
</g>
<g style="mix-blend-mode:multiply">
<path d="M107.247 239.591L107.477 239.529L107.308 239.822C107.282 239.747 107.261 239.67 107.247 239.591V239.591Z" fill="#CADF81"/>
</g>
<g style="mix-blend-mode:multiply">
<path d="M198.212 135.787L198.372 135.88L198.322 135.968L198.29 135.754L198.212 135.787Z" fill="#CADF81"/>
</g>
<g style="mix-blend-mode:multiply">
<path d="M100.758 116.818L100.581 117.125L100.507 116.849L100.758 116.818Z" fill="#00BB71"/>
</g>
<path d="M106.922 168.382C106.28 169.279 105.44 170.015 104.466 170.531C103.493 171.048 102.413 171.331 101.313 171.358C100.213 171.385 99.1221 171.155 98.1271 170.687C97.1322 170.219 96.2602 169.525 95.5801 168.661C94.2123 166.63 93.2712 164.342 92.8139 161.934C92.0148 158.549 91.4384 155.114 91.0884 151.652C90.7609 149.727 92.2165 148.89 93.5677 148.032C94.1159 147.663 94.767 147.48 95.4256 147.51C96.0842 147.539 96.7155 147.778 97.227 148.194C98.7291 149.379 100.109 150.712 101.347 152.172C104.02 154.759 106.111 157.888 107.481 161.351C107.967 162.478 108.169 163.708 108.072 164.933C107.974 166.159 107.58 167.343 106.922 168.382V168.382Z" fill="white"/>
<path d="M120.725 145.317C117.694 142.855 115.151 139.845 113.228 136.443C112.79 135.836 112.553 135.106 112.55 134.356C112.548 133.606 112.779 132.873 113.213 132.26C114.144 130.984 115.539 130.892 117.022 131.085C121.343 131.537 125.583 132.562 129.632 134.132C131.069 134.582 132.344 135.44 133.302 136.603C134.26 137.765 134.86 139.182 135.029 140.681C135.495 145.398 131.513 148.658 126.402 147.911C124.317 147.551 122.361 146.658 120.725 145.317V145.317Z" fill="white"/>
</g>
<defs>
<clipPath id="clip0_2_3">
<rect width="263.293" height="153.209" fill="white" transform="translate(0 228.018) rotate(-60)"/>
</clipPath>
</defs>
</svg>
