<svg xmlns="http://www.w3.org/2000/svg" width="101" height="48" fill="#f9423a" xmlns:v="https://vecta.io/nano"><path d="M15.668.026h3.586c1.361.026 3.429.051 4.868 1.334 1.152 1.051 1.596 2.616 1.596 4.206 0 .974-.131 1.693-.288 2.154-1.021 3.462-4.161 3.539-5.339 3.539h-4.423V.026zm2.827 2.359v6.616h.864c1.492-.026 3.56-.103 3.56-3.334 0-.769-.078-1.564-.602-2.257-.759-1.026-1.858-1-2.696-1h-1.125v-.026zM29.539.026h8.297v2.18H32.34v2.026h5.13V6.36h-5.13v2.693h5.994v2.205H29.54V.026zM47.311 0h2.801v8.873h4.397v2.385h-7.198V0zm16.227.026l4.135 11.232H64.69l-.55-1.795h-4.162l-.55 1.795h-2.984L60.607.026h2.931zM62.02 2.693l-.471 1.744-.916 3h2.853L62.02 2.693zm27.769 42.056c0 1.616-1.335 2.949-3.01 2.949-1.649 0-3.01-1.308-3.01-2.949 0-1.616 1.335-2.949 3.01-2.949s3.01 1.334 3.01 2.949zm9.764-24.285c.498-1.436-.602-3.744-2.408-4.334s-3.664.718-4.162 2.154c-.052.128-.052.256-.079.385-.026.026-.052.051-.079.103l-4.58 19.874s-.052.487.471.667c.497.154.785-.256.785-.256l9.736-18.028c.131-.154.236-.359.314-.564zM15.431 33.722c-.157.949-.314 1.872-1.047 3a6.87 6.87 0 0 1-3.167 2.616c-3.481 1.436-7.329.103-9.187-4.257-1.623-3.795-.262-7.898 3.455-9.411 1.492-.616 3.062-.667 4.371-.308 1.204.333 1.937.872 2.591 1.359l-2.068 2.334c-.366-.333-.785-.692-1.544-.923-.838-.231-1.544-.128-2.068.102-2.12.872-2.408 3.257-1.492 5.411 1.204 2.821 3.272 3.616 5.025 2.898 1.701-.692 1.911-2.154 2.015-3.077l3.115.256zM26.92 21.028l7.145 13.079-3.743.513-1.021-2.103-5.182.718-.393 2.308-3.743.513 3.272-14.515 3.664-.513zm-1.44 3.539l-.288 2.206-.628 3.847 3.56-.487-2.644-5.565zm13.692-4.436l3.533.051-.131 11.002 5.549.077-.026 2.923-9.108-.103.183-13.951zm16.41.718l3.507.538-1.701 10.873 5.496.821-.445 2.898-9.004-1.334 2.146-13.797zm17.091 3.282l9.763 3.795-1.021 2.513-6.465-2.513-.968 2.334 6.046 2.359-.995 2.462-6.046-2.359-1.256 3.077 7.067 2.77-1.047 2.539-10.339-4.052 5.261-12.925z"></path></svg>