<svg xmlns="http://www.w3.org/2000/svg" width="86" height="40" viewBox="0 0 86 40">
                          <g fill="none" fill-rule="evenodd">
                              <g fill="var(--background-color)">
                                  <g>
                                      <path d="M606.099 174.318c-.352-.672-.918-1.195-1.649-1.39-9.57-7.348-18.828-13.962-29.582-19.626-2.746-1.445-5.07 2.676-2.355 4.223 7.336 4.176 13.895 8.77 20.352 13.766-11.117-.297-22.293.27-33.367 1.027-6.996.477-13.984 1.11-20.957 1.86-5.328.57-11.473.586-16.566 2.293-1.48.496-1.207 2.605.363 2.687 5.684.309 11.84-1.004 17.54-1.386 6.78-.453 13.57-.762 20.358-1.008 10.891-.399 21.848-.692 32.746-.125-8.21 3.152-16.09 6.61-24 11.05-2.727 1.532-.289 5.59 2.457 4.165 10.777-5.594 21.422-9.367 32.973-13.02 1.184-.375 1.816-1.234 2.02-2.188.28-.765.234-1.601-.332-2.328h-.001z" transform="translate(-978 -1777) translate(457 1624)"></path>
                                  </g>
                              </g>
                          </g>
                      </svg>